# xmcd
# Track frame offsets:
# 150
# 15892
# 28062
# 51295
# 59612
# 76685
# 89357
# 101190
# 114120
# 131247
# 139852
# 157237
#
# Disc length: 2287 seconds
# Revision: 0
# Processed by: cddbd v1.4PL0 Copyright (c) Steve Scherf et al.
# Submitted via: VisiTrax 2.9.5.180 - For more info visit www.synapsa.com
#
DISCID=9d08ed0c
DTITLE=Ray Price - A revival of old time singing
DYEAR=2003
DGENRE=Country
TTITLE0=In The Garden
TTITLE1=I'll Fly Away
TTITLE2=Precious memories
TTITLE3=Love Lifted Me
TTITLE4=Softly and tenderly
TTITLE5=When the roll is called up yonder
TTITLE6=What did the carpenter build
TTITLE7=Amazing Grace
TTITLE8=In vain
TTITLE9=Rock Of Ages
TTITLE10=What A Friend We Have In Jesus
TTITLE11=Juat as I am
EXTD=125.04 Step One Records
EXTT0=
EXTT1=
EXTT2=
EXTT3=
EXTT4=
EXTT5=
EXTT6=
EXTT7=
EXTT8=
EXTT9=
EXTT10=
EXTT11=
PLAYORDER=
